<?xml version="1.0" encoding="UTF-8" standalone="no"?>
<svg
   xmlns:dc="http://purl.org/dc/elements/1.1/"
   xmlns:cc="http://creativecommons.org/ns#"
   xmlns:rdf="http://www.w3.org/1999/02/22-rdf-syntax-ns#"
   xmlns:svg="http://www.w3.org/2000/svg"
   xmlns="http://www.w3.org/2000/svg"
   xmlns:sodipodi="http://sodipodi.sourceforge.net/DTD/sodipodi-0.dtd"
   xmlns:inkscape="http://www.inkscape.org/namespaces/inkscape"
   inkscape:version="1.0 (4035a4fb49, 2020-05-01)"
   sodipodi:docname="capa.svg"
   id="svg6"
   version="1.1"
   height="219.97734"
   width="447.86154">
  <metadata
     id="metadata12">
    <rdf:RDF>
      <cc:Work
         rdf:about="">
        <dc:format>image/svg+xml</dc:format>
        <dc:type
           rdf:resource="http://purl.org/dc/dcmitype/StillImage" />
        <dc:title></dc:title>
      </cc:Work>
    </rdf:RDF>
  </metadata>
  <defs
     id="defs10" />
  <sodipodi:namedview
     inkscape:current-layer="svg6"
     inkscape:window-maximized="1"
     inkscape:window-y="-8"
     inkscape:window-x="-8"
     inkscape:cy="70.293632"
     inkscape:cx="352.51199"
     inkscape:zoom="0.84538544"
     showgrid="false"
     id="namedview8"
     inkscape:window-height="705"
     inkscape:window-width="1360"
     inkscape:pageshadow="2"
     inkscape:pageopacity="0"
     guidetolerance="10"
     gridtolerance="10"
     objecttolerance="10"
     borderopacity="1"
     bordercolor="#666666"
     pagecolor="#ffffff" />
  <rect
     style="stroke-width:1.20811"
     y="0"
     x="0"
     id="rect2"
     fill="#eeeeee"
     height="219.97734"
     width="447.86154" />
  <text
     id="text4"
     style="font-weight:bold;font-size:17.9145px;font-family:Arial, Helvetica, sans-serif;dominant-baseline:central;fill:#aaaaaa;stroke-width:1.49287"
     y="128.88896"
     x="223.93077"
     text-anchor="middle">Adicine uma foto como capa da sua enquete</text>
  <path
     style="fill:#b4b4b4;fill-opacity:1;stroke-width:0.0951392"
     d="m 243.71972,107.75192 h -39.57791 c -2.52215,0 -4.56668,-2.04453 -4.56668,-4.56668 V 75.785143 c 0,-2.522132 2.04453,-4.566665 4.56668,-4.566665 h 39.57791 c 2.52214,0 4.56668,2.044533 4.56668,4.566665 v 27.400097 c 0,2.52215 -2.04454,4.56668 -4.56668,4.56668 z M 210.23071,76.546254 c -2.94245,0 -5.32777,2.385341 -5.32777,5.327806 0,2.942465 2.38532,5.327791 5.32777,5.327791 2.94247,0 5.32781,-2.385326 5.32781,-5.327791 0,-2.942465 -2.38534,-5.327806 -5.32781,-5.327806 z m -4.56668,25.116766 h 36.53346 v -10.6556 l -8.32611,-8.326104 c -0.44581,-0.445832 -1.16868,-0.445832 -1.6146,0 L 219.36409,95.5741 214.08243,90.292454 c -0.44582,-0.445831 -1.16868,-0.445831 -1.61462,0 l -6.80378,6.803883 z"
     id="path18" />
</svg>
