<?xml version="1.0" encoding="UTF-8" standalone="no"?>
<svg
   xmlns:dc="http://purl.org/dc/elements/1.1/"
   xmlns:cc="http://creativecommons.org/ns#"
   xmlns:rdf="http://www.w3.org/1999/02/22-rdf-syntax-ns#"
   xmlns:svg="http://www.w3.org/2000/svg"
   xmlns="http://www.w3.org/2000/svg"
   xmlns:sodipodi="http://sodipodi.sourceforge.net/DTD/sodipodi-0.dtd"
   xmlns:inkscape="http://www.inkscape.org/namespaces/inkscape"
   inkscape:version="1.0 (4035a4fb49, 2020-05-01)"
   sodipodi:docname="foto.svg"
   id="svg6"
   version="1.1"
   height="340.64697"
   width="294.79065">
  <metadata
     id="metadata12">
    <rdf:RDF>
      <cc:Work
         rdf:about="">
        <dc:format>image/svg+xml</dc:format>
        <dc:type
           rdf:resource="http://purl.org/dc/dcmitype/StillImage" />
        <dc:title></dc:title>
      </cc:Work>
    </rdf:RDF>
  </metadata>
  <defs
     id="defs10" />
  <sodipodi:namedview
     inkscape:current-layer="svg6"
     inkscape:window-maximized="1"
     inkscape:window-y="-8"
     inkscape:window-x="-8"
     inkscape:cy="170.15817"
     inkscape:cx="7.4490537"
     inkscape:zoom="0.84538544"
     showgrid="false"
     id="namedview8"
     inkscape:window-height="705"
     inkscape:window-width="1360"
     inkscape:pageshadow="2"
     inkscape:pageopacity="0"
     guidetolerance="10"
     gridtolerance="10"
     objecttolerance="10"
     borderopacity="1"
     bordercolor="#666666"
     pagecolor="#ffffff" />
  <rect
     style="stroke-width:1.21971"
     transform="rotate(90)"
     y="-294.79065"
     x="0"
     id="rect2"
     fill="#eeeeee"
     height="294.79065"
     width="340.64697" />
  <g
     transform="matrix(1.3101807,0,0,1.3101807,-5.1637636,-0.76223234)"
     id="g850">
    <text
       text-anchor="middle"
       x="119.59735"
       y="202.41306"
       style="font-weight:bold;font-size:19px;font-family:Arial, Helvetica, sans-serif;dominant-baseline:central;fill:#aaaaaa"
       id="text4">Foto</text>
    <path
       id="path14"
       d="m 116.44126,115.23531 c 17.10797,0 30.9734,-13.86544 30.9734,-30.973406 0,-17.107961 -13.86543,-30.973399 -30.9734,-30.973399 -17.107965,0 -30.973401,13.865438 -30.973401,30.973399 0,17.107966 13.865436,30.973406 30.973401,30.973406 z m 21.68138,7.74335 h -4.04106 c -5.37196,2.4682 -11.34886,3.87167 -17.64032,3.87167 -6.29148,0 -12.24417,-1.40347 -17.64032,-3.87167 h -4.04106 c -17.954894,0 -32.522071,14.56717 -32.522071,32.52207 v 10.06636 c 0,6.41245 5.202564,11.61502 11.615025,11.61502 h 85.176856 c 6.41245,0 11.61502,-5.20257 11.61502,-11.61502 v -10.06636 c 0,-17.9549 -14.56718,-32.52207 -32.52207,-32.52207 z"
       style="fill:#aaaaaa;fill-opacity:1;stroke-width:0.241979" />
  </g>
</svg>
