<?xml version="1.0" encoding="UTF-8" standalone="no"?>
<svg
   xmlns:dc="http://purl.org/dc/elements/1.1/"
   xmlns:cc="http://creativecommons.org/ns#"
   xmlns:rdf="http://www.w3.org/1999/02/22-rdf-syntax-ns#"
   xmlns:svg="http://www.w3.org/2000/svg"
   xmlns="http://www.w3.org/2000/svg"
   xmlns:sodipodi="http://sodipodi.sourceforge.net/DTD/sodipodi-0.dtd"
   xmlns:inkscape="http://www.inkscape.org/namespaces/inkscape"
   inkscape:version="1.0 (4035a4fb49, 2020-05-01)"
   sodipodi:docname="ico-anexo.svg"
   xml:space="preserve"
   viewBox="0 0 24.614732 20.885936"
   height="20.885935"
   width="24.614729"
   y="0px"
   x="0px"
   id="Capa_1"
   version="1.1"><metadata
   id="metadata1357"><rdf:RDF><cc:Work
       rdf:about=""><dc:format>image/svg+xml</dc:format><dc:type
         rdf:resource="http://purl.org/dc/dcmitype/StillImage" /><dc:title /></cc:Work></rdf:RDF></metadata><defs
   id="defs1355"><filter
     height="1.0000666"
     y="-3.3283117e-05"
     width="1.0000546"
     x="-2.7306436e-05"
     id="filter858"
     style="color-interpolation-filters:sRGB"
     inkscape:collect="always"><feGaussianBlur
       id="feGaussianBlur860"
       stdDeviation="0.00025429394"
       inkscape:collect="always" /></filter></defs><sodipodi:namedview
   inkscape:current-layer="g1320"
   inkscape:window-maximized="1"
   inkscape:window-y="-8"
   inkscape:window-x="-8"
   inkscape:cy="9.605952"
   inkscape:cx="16.572264"
   inkscape:zoom="16.130574"
   showgrid="false"
   id="namedview1353"
   inkscape:window-height="705"
   inkscape:window-width="1360"
   inkscape:pageshadow="2"
   inkscape:pageopacity="0"
   guidetolerance="10"
   gridtolerance="10"
   objecttolerance="10"
   borderopacity="1"
   bordercolor="#666666"
   pagecolor="#ffffff"
   inkscape:document-rotation="0" />
<g
   transform="translate(5.3165254,-4.9839091)"
   id="g1320">
	<path
   style="fill:#557cf2;fill-opacity:1;stroke-width:0.296811"
   id="path1318"
   d="M 18.18899,6.3171333 C 16.626377,4.6310896 13.983829,4.5306879 12.298003,6.0930991 L 3.1833562,14.54049 c -0.509623,0.472315 -0.5398709,1.268435 -0.067355,1.778275 0.472315,0.509623 1.2684183,0.54029 1.7782592,0.06777 L 14.008908,7.9391472 c 0.667886,-0.6189925 1.715057,-0.5794155 2.334252,0.088689 0.61879,0.6676684 0.578794,1.7148226 -0.08909,2.3338158 l -3.347487,3.102427 -5.7671603,5.344964 -3.8649469,3.582005 c -1.4633417,1.356215 -3.75626804,1.268887 -5.1122823,-0.194238 -1.3560129,-1.463124 -1.2688707,-3.756688 0.1940353,-5.112499 L 7.9883339,8.1573415 C 8.4981743,7.684825 8.5284229,6.8887058 8.055906,6.378865 7.5835917,5.8692427 6.7872699,5.838777 6.2774295,6.3112934 l -9.6321071,8.9269696 c -2.4810636,2.299432 -2.6288292,6.188591 -0.3293976,8.669654 2.299433,2.481064 6.1883753,2.629031 8.669656,0.329398 l 3.8649469,-3.582006 5.7671603,-5.344963 3.347487,-3.102428 C 19.651,10.645507 19.751402,8.0029589 18.18899,6.3171333 Z" />
</g>
<g
   transform="translate(5.3165254,-4.9839091)"
   id="g1322">
</g>
<g
   transform="translate(5.3165254,-4.9839091)"
   id="g1324">
</g>
<g
   transform="translate(5.3165254,-4.9839091)"
   id="g1326">
</g>
<g
   transform="translate(5.3165254,-4.9839091)"
   id="g1328">
</g>
<g
   transform="translate(5.3165254,-4.9839091)"
   id="g1330">
</g>
<g
   transform="translate(5.3165254,-4.9839091)"
   id="g1332">
</g>
<g
   transform="translate(5.3165254,-4.9839091)"
   id="g1334">
</g>
<g
   transform="translate(5.3165254,-4.9839091)"
   id="g1336">
</g>
<g
   transform="translate(5.3165254,-4.9839091)"
   id="g1338">
</g>
<g
   transform="translate(5.3165254,-4.9839091)"
   id="g1340">
</g>
<g
   transform="translate(5.3165254,-4.9839091)"
   id="g1342">
</g>
<g
   transform="translate(5.3165254,-4.9839091)"
   id="g1344">
</g>
<g
   transform="translate(5.3165254,-4.9839091)"
   id="g1346">
</g>
<g
   transform="translate(5.3165254,-4.9839091)"
   id="g1348">
</g>
<g
   transform="translate(5.3165254,-4.9839091)"
   id="g1350">
</g>
</svg>
