<?xml version="1.0" encoding="UTF-8" standalone="no"?>
<svg
   xmlns:dc="http://purl.org/dc/elements/1.1/"
   xmlns:cc="http://creativecommons.org/ns#"
   xmlns:rdf="http://www.w3.org/1999/02/22-rdf-syntax-ns#"
   xmlns:svg="http://www.w3.org/2000/svg"
   xmlns="http://www.w3.org/2000/svg"
   xmlns:xlink="http://www.w3.org/1999/xlink"
   xmlns:sodipodi="http://sodipodi.sourceforge.net/DTD/sodipodi-0.dtd"
   xmlns:inkscape="http://www.inkscape.org/namespaces/inkscape"
   width="101.92258mm"
   height="93.260201mm"
   viewBox="0 0 101.92258 93.260201"
   version="1.1"
   id="svg396"
   inkscape:version="1.0 (4035a4fb49, 2020-05-01)"
   sodipodi:docname="logo-somar3.svg">
  <defs
     id="defs390">
    <linearGradient
       gradientUnits="userSpaceOnUse"
       gradientTransform="scale(0.99002868,1.0100717)"
       y2="148.19777"
       x2="221.58784"
       y1="51.47316"
       x1="221.58784"
       id="grad2"
       xlink:href="#grad1" />
    <linearGradient
       id="grad1">
      <stop
         id="stop12"
         stop-opacity="1.0000"
         stop-color="#1a8c84"
         offset="0%" />
      <stop
         id="stop14"
         stop-opacity="1.0000"
         stop-color="#77d9fe"
         offset="100%" />
    </linearGradient>
    <linearGradient
       gradientUnits="userSpaceOnUse"
       gradientTransform="scale(0.99002976,1.0100707)"
       y2="139.7431"
       x2="230.04156"
       y1="59.927528"
       x1="230.04156"
       id="grad4"
       xlink:href="#grad1" />
    <linearGradient
       gradientUnits="userSpaceOnUse"
       gradientTransform="scale(0.9900295,1.0100709)"
       y2="131.09616"
       x2="238.68788"
       y1="68.573929"
       x1="238.68788"
       id="grad6"
       xlink:href="#grad1" />
    <linearGradient
       gradientUnits="userSpaceOnUse"
       gradientTransform="scale(0.99002705,1.0100734)"
       y2="123.55755"
       x2="246.22621"
       y1="76.111626"
       x1="246.22621"
       id="grad8"
       xlink:href="#grad1" />
    <linearGradient
       gradientUnits="userSpaceOnUse"
       gradientTransform="scale(1.0934381,0.9145465)"
       y2="275.27631"
       x2="170.52348"
       y1="45.466251"
       x1="170.52348"
       id="grad10"
       xlink:href="#grad9" />
    <linearGradient
       id="grad9">
      <stop
         id="stop58"
         stop-opacity="1.0000"
         stop-color="#008477"
         offset="0%" />
      <stop
         id="stop60"
         stop-opacity="1.0000"
         stop-color="#89d4f2"
         offset="100%" />
    </linearGradient>
    <linearGradient
       gradientUnits="userSpaceOnUse"
       gradientTransform="scale(1.4004806,0.71404058)"
       y2="398.6181"
       x2="115.10241"
       y1="202.83589"
       x1="115.10241"
       id="grad12"
       xlink:href="#grad1" />
    <linearGradient
       gradientUnits="objectBoundingBox"
       gradientTransform="rotate(43,0.5,0.5)"
       y2="1"
       x2="0"
       y1="0"
       x1="0"
       id="linearGradient332"
       xlink:href="#grad1" />
    <linearGradient
       gradientUnits="objectBoundingBox"
       gradientTransform="rotate(-156,0.5,0.5)"
       y2="1"
       x2="0"
       y1="0"
       x1="0"
       id="linearGradient342"
       xlink:href="#grad1" />
    <linearGradient
       gradientUnits="objectBoundingBox"
       gradientTransform="rotate(82,0.5,0.5)"
       y2="1"
       x2="0"
       y1="0"
       x1="0"
       id="linearGradient375"
       xlink:href="#grad9" />
    <linearGradient
       gradientUnits="objectBoundingBox"
       gradientTransform="rotate(-93,0.5,0.5)"
       y2="1"
       x2="0"
       y1="0"
       x1="0"
       id="linearGradient385"
       xlink:href="#grad1" />
  </defs>
  <sodipodi:namedview
     id="base"
     pagecolor="#ffffff"
     bordercolor="#666666"
     borderopacity="1.0"
     inkscape:pageopacity="0.0"
     inkscape:pageshadow="2"
     inkscape:zoom="0.7"
     inkscape:cx="282.66773"
     inkscape:cy="221.36283"
     inkscape:document-units="mm"
     inkscape:current-layer="layer1"
     inkscape:document-rotation="0"
     showgrid="false"
     inkscape:window-width="1344"
     inkscape:window-height="728"
     inkscape:window-x="0"
     inkscape:window-y="0"
     inkscape:window-maximized="0" />
  <metadata
     id="metadata393">
    <rdf:RDF>
      <cc:Work
         rdf:about="">
        <dc:format>image/svg+xml</dc:format>
        <dc:type
           rdf:resource="http://purl.org/dc/dcmitype/StillImage" />
        <dc:title></dc:title>
      </cc:Work>
    </rdf:RDF>
  </metadata>
  <g
     inkscape:label="Layer 1"
     inkscape:groupmode="layer"
     id="layer1"
     transform="translate(-47.074939,-94.537533)">
    <g
       id="Layer1001"
       transform="matrix(0.26458333,0,0,0.26458333,21.479201,-21.255536)">
      <path
         id="path79"
         style="fill:#ffffff;fill-rule:evenodd"
         d="m 96.7398,736.2394 5.0302,-3.0238 c 3.546,6.5427 7.642,9.8137 12.288,9.8137 1.9929,0 3.8618,-0.4674 5.6073,-1.3879 1.7456,-0.9212 3.0793,-2.1717 3.9863,-3.7249 0.9206,-1.5532 1.3744,-3.2025 1.3744,-4.9481 0,-1.9793 -0.6733,-3.9172 -2.0206,-5.8274 -1.8553,-2.6255 -5.2367,-5.8003 -10.1707,-9.498 -4.9481,-3.7384 -8.0268,-6.4323 -9.2365,-8.0953 -2.1032,-2.7901 -3.1477,-5.8138 -3.1477,-9.0577 0,-2.57 0.6184,-4.9204 1.8559,-7.0372 1.2369,-2.1167 2.9825,-3.7797 5.2367,-5.003 2.2537,-1.2233 4.6867,-1.8282 7.3257,-1.8282 2.8037,0 5.4291,0.6875 7.8616,2.0754 2.4331,1.3744 5.0172,3.9173 7.7382,7.6144 l -4.8377,3.6699 c -2.2407,-2.9547 -4.1509,-4.9068 -5.7319,-5.8416 -1.5803,-0.9483 -3.2987,-1.4157 -5.1541,-1.4157 -2.4053,0 -4.3704,0.7288 -5.8964,2.1717 -1.5255,1.457 -2.295,3.2303 -2.295,5.3606 0,1.2782 0.2744,2.5293 0.8108,3.7384 0.5358,1.2098 1.5255,2.5157 2.9547,3.945 0.7701,0.7423 3.3401,2.721 7.6834,5.91 5.1405,3.7933 8.673,7.1611 10.5832,10.1023 1.9108,2.9553 2.8727,5.9242 2.8727,8.9066 0,4.2884 -1.6352,8.0268 -4.8927,11.1881 -3.2716,3.1748 -7.2437,4.7552 -11.9169,4.7552 -3.6009,0 -6.8719,-0.9619 -9.8001,-2.8863 -2.9276,-1.9238 -5.635,-5.1541 -8.1088,-9.6762 z m 98.2324,-49.6178 c 8.9616,0 16.4661,2.9966 22.5001,8.9751 6.0339,5.9791 9.0577,13.3462 9.0577,22.0876 0,8.673 -3.0102,16.0265 -9.0306,22.0604 -6.0339,6.0334 -13.3733,9.0572 -22.0462,9.0572 -8.7692,0 -16.177,-3.0096 -22.2109,-9.0165 -6.034,-6.0062 -9.0578,-13.2771 -9.0578,-21.8125 0,-5.69 1.3744,-10.9544 4.1232,-15.82 2.7488,-4.8519 6.5013,-8.6588 11.2571,-11.4075 4.7416,-2.7494 9.8821,-4.1238 15.4074,-4.1238 z m 0.2614,5.7725 c -4.371,0 -8.5219,1.1413 -12.4527,3.4227 -3.9172,2.2814 -6.9822,5.3465 -9.1952,9.2088 -2.1994,3.876 -3.2988,8.1779 -3.2988,12.9337 0,7.0236 2.4331,12.9614 7.3122,17.7992 4.8791,4.8519 10.762,7.2708 17.6345,7.2708 4.6041,0 8.8512,-1.1129 12.7549,-3.3401 3.9172,-2.2265 6.9681,-5.2774 9.1539,-9.1397 2.1852,-3.8623 3.2846,-8.1507 3.2846,-12.8788 0,-4.7009 -1.0994,-8.948 -3.2846,-12.7412 -2.1858,-3.7933 -5.278,-6.8313 -9.2501,-9.1127 -3.9721,-2.2814 -8.192,-3.4227 -12.6587,-3.4227 z m 63.4585,54.9236 8.2056,-59.2114 h 1.2233 l 24.094,48.5733 23.9429,-48.5733 h 0.8935 l 8.5219,59.2114 h -5.7319 l -5.9377,-42.3882 -20.9741,42.3882 h -1.5532 l -21.1799,-42.7181 -5.677,42.7181 z m 125.4192,-59.2114 27.6264,59.2114 h -6.3638 l -9.2501,-19.4621 h -25.6613 l -9.1947,19.4621 h -6.5975 l 27.9563,-59.2114 z m -0.7424,12.425 -10.1848,21.5512 h 20.3284 z m 60.6549,-12.425 h 11.82 c 6.584,0 11.0506,0.2744 13.3875,0.8109 3.5324,0.7972 6.391,2.5151 8.5904,5.1676 2.2129,2.6391 3.3123,5.8965 3.3123,9.7588 0,3.2162 -0.7559,6.0476 -2.2814,8.4806 -1.5119,2.4467 -3.6835,4.2884 -6.5149,5.5389 -2.8178,1.2511 -6.7215,1.8831 -11.6968,1.9108 l 21.3181,27.5438 h -7.2709 l -21.318,-27.5438 h -3.4086 v 27.5438 h -5.9377 z m 5.9377,5.7726 v 20.1219 l 10.2256,0.0826 c 3.9727,0 6.9003,-0.3712 8.7969,-1.1271 1.8967,-0.756 3.3808,-1.9516 4.4531,-3.6009 1.0581,-1.6494 1.5945,-3.4912 1.5945,-5.5395 0,-1.9787 -0.5364,-3.7933 -1.6223,-5.4149 -1.0716,-1.6223 -2.4873,-2.7765 -4.2465,-3.4776 -1.7455,-0.7011 -4.6595,-1.0445 -8.7278,-1.0445 z" />
      <path
         id="path81"
         style="fill:#ffffff;fill-rule:evenodd"
         d="m 195.7736,763.3377 -2.9972,1.991 c -0.7908,-0.6798 -1.5095,-1.1849 -2.1551,-1.5219 -0.6385,-0.331 -1.568,-0.4992 -2.7866,-0.4992 -1.3277,0 -2.4018,0.2467 -3.2291,0.7459 -0.8274,0.4933 -1.241,1.1366 -1.241,1.9185 0,0.6739 0.3629,1.2752 1.0811,1.7928 0.7258,0.5234 1.9527,1.0887 3.6935,1.7143 1.7344,0.6196 3.0917,1.1967 4.0571,1.7261 0.9725,0.5352 1.7633,1.1247 2.387,1.7685 0.6244,0.6498 1.0811,1.3296 1.3862,2.0448 0.3045,0.7099 0.4568,1.4682 0.4568,2.2678 0,1.8648 -0.8203,3.4528 -2.4526,4.7641 -1.6405,1.3171 -3.6209,1.9727 -5.9501,1.9727 -2.2643,0 -4.2666,-0.511 -6.0086,-1.5396 -1.7344,-1.0286 -3.0692,-2.5747 -4.0058,-4.6259 l 3.7007,-0.8716 c 1.3431,2.5263 3.3961,3.7891 6.1614,3.7891 1.3425,0 2.4596,-0.331 3.3454,-0.9926 0.8917,-0.6674 1.3348,-1.5036 1.3348,-2.5139 0,-0.6078 -0.2325,-1.215 -0.6963,-1.8228 -0.465,-0.6138 -1.038,-1.1189 -1.7273,-1.5096 -0.6892,-0.3971 -1.7857,-0.8604 -3.2946,-1.3838 -1.5095,-0.5293 -2.6709,-1.0044 -3.49,-1.4375 -0.8202,-0.4267 -1.5243,-0.9324 -2.1268,-1.5279 -0.5948,-0.5895 -1.0303,-1.1784 -1.3136,-1.7679 -0.2756,-0.5837 -0.4136,-1.2151 -0.4136,-1.8831 0,-1.6057 0.7771,-2.9772 2.3368,-4.1078 1.5603,-1.1313 3.454,-1.6966 5.6746,-1.6966 1.48,0 2.9754,0.2649 4.492,0.7943 1.5095,0.5293 2.7718,1.3289 3.7809,2.4118 z m 9.056,5.4196 v 2.9229 0 c 1.7632,-2.2371 4.0269,-3.356 6.7775,-3.356 2.2637,0 4.2087,0.7518 5.8416,2.2495 1.6328,1.5037 2.4454,3.2899 2.4454,5.3772 0,2.1055 -0.8273,3.9219 -2.4891,5.4497 -1.6547,1.5338 -3.6068,2.298 -5.8634,2.298 -1.2989,0 -2.5541,-0.2827 -3.7514,-0.848 -1.1903,-0.5595 -2.184,-1.378 -2.9606,-2.4484 v 0 9.7204 h -3.7007 v -21.3653 z m 11.2335,7.1936 c 0,-1.2871 -0.5813,-2.4118 -1.7421,-3.3684 -1.1613,-0.9619 -2.5327,-1.4434 -4.1072,-1.4434 -1.5963,0 -2.9824,0.475 -4.1509,1.4316 -1.1678,0.9566 -1.7562,2.0813 -1.7562,3.3802 0,1.3295 0.5813,2.4844 1.7344,3.4646 1.1543,0.9808 2.518,1.4676 4.093,1.4676 1.6252,0 3.0256,-0.4809 4.1869,-1.4493 1.1608,-0.9684 1.7421,-2.1292 1.7421,-3.4829 z m 26.1157,0.6379 H 227.201 c 0.3269,1.5036 1.0669,2.5983 2.2206,3.2899 1.1614,0.6916 2.4165,1.041 3.7815,1.041 2.0961,0 3.86,-0.7223 5.2751,-2.1657 l 2.6992,1.6901 c -2.0241,2.1716 -4.7381,3.2545 -8.1419,3.2545 -2.6119,0 -4.7894,-0.74 -6.5527,-2.226 -1.7562,-1.4794 -2.6343,-3.32 -2.6343,-5.5217 0,-2.0631 0.8929,-3.8435 2.6709,-5.3589 1.7774,-1.5101 3.9473,-2.2678 6.5161,-2.2678 2.5251,0 4.6879,0.7636 6.4872,2.2979 1.7998,1.5337 2.6856,3.5248 2.6561,5.9667 z m -14.586,-2.4543 h 10.7544 c -1.1974,-1.997 -2.9601,-2.9954 -5.2899,-2.9954 -2.5469,0 -4.368,0.9984 -5.4645,2.9954 z m 32.0016,4.728 v 3.5006 c -1.8866,0.8899 -3.7148,1.3355 -5.4857,1.3355 -2.4243,0 -4.5428,-0.7583 -6.3645,-2.2679 -1.8211,-1.516 -2.7352,-3.2663 -2.7352,-5.2508 0,-2.262 0.907,-4.1326 2.7211,-5.6245 1.814,-1.4853 4.0924,-2.2312 6.8288,-2.2312 1.6252,0 3.3082,0.3488 5.0355,1.0463 v 3.4286 c -1.8577,-0.9625 -3.6139,-1.4435 -5.2757,-1.4435 -1.5313,0 -2.8662,0.445 -4.0204,1.3414 -1.1461,0.8905 -1.7191,1.9367 -1.7191,3.14 0,1.3472 0.537,2.4838 1.6181,3.4103 1.0735,0.9206 2.3942,1.3832 3.955,1.3832 1.5892,0 3.4032,-0.5895 5.4421,-1.768 z m 2.9093,-14.8692 c 0,-0.6373 0.2838,-1.185 0.8498,-1.6482 0.573,-0.4632 1.2404,-0.6975 2.0247,-0.6975 0.7689,0 1.4292,0.2343 1.9881,0.6975 0.5582,0.4632 0.8415,1.0109 0.8415,1.6482 0,0.6438 -0.2833,1.1968 -0.8415,1.66 -0.5589,0.4574 -1.2192,0.6857 -1.9881,0.6857 -0.7843,0 -1.4517,-0.2283 -2.0247,-0.6857 -0.566,-0.4632 -0.8498,-1.0162 -0.8498,-1.66 z m 1.0451,4.764 h 3.7018 v 14.5441 h -3.7018 z m 23.9547,0 h 3.7012 v 14.5441 h -3.7012 v -2.8874 c -1.8069,2.1899 -4.0417,3.2846 -6.712,3.2846 -2.3151,0 -4.2961,-0.7518 -5.936,-2.262 -1.6406,-1.5036 -2.4602,-3.3324 -2.4602,-5.4857 0,-2.0389 0.8273,-3.8193 2.482,-5.3412 1.6547,-1.5219 3.5991,-2.2855 5.8263,-2.2855 1.3791,0 2.6856,0.3128 3.9266,0.9442 1.2339,0.6255 2.1911,1.4434 2.8733,2.4484 z m 0.5228,7.2963 c 0,-1.3296 -0.5806,-2.4726 -1.7343,-3.4168 -1.1543,-0.9501 -2.5405,-1.4257 -4.1509,-1.4257 -1.5745,0 -2.9465,0.4691 -4.1149,1.4139 -1.1685,0.9442 -1.7556,2.0506 -1.7556,3.3259 0,1.3779 0.573,2.5505 1.7125,3.5189 1.1389,0.9684 2.5251,1.4499 4.158,1.4499 1.6104,0 2.9966,-0.4815 4.1509,-1.444 1.1537,-0.956 1.7343,-2.0991 1.7343,-3.4221 z m 9.223,-15.6335 h 3.7007 v 22.8813 h -3.7007 z m 43.3218,1.1915 v 3.4646 c -2.9169,-1.1791 -5.609,-1.7686 -8.0622,-1.7686 -3.1423,0 -5.7979,0.8421 -7.953,2.5204 -2.1557,1.6842 -3.2291,3.7472 -3.2291,6.1951 0,2.4962 1.1029,4.5775 3.3094,6.2499 2.1981,1.6659 4.9634,2.5021 8.2793,2.5021 2.4095,0 4.9641,-0.6255 7.6556,-1.8766 v 3.5006 c -2.4525,1.0829 -5.1086,1.624 -7.9748,1.624 -4.2011,0 -7.7866,-1.1725 -10.762,-3.5247 -2.9819,-2.3517 -4.4702,-5.1907 -4.4702,-8.5113 0,-3.2599 1.4659,-6.0511 4.3905,-8.3726 2.9317,-2.3222 6.4589,-3.4829 10.5879,-3.4829 2.6485,0 5.3914,0.4933 8.2286,1.48 z m 18.8095,7.1457 h 3.7012 v 14.5441 h -3.7012 v -2.8874 c -1.8069,2.1899 -4.0417,3.2846 -6.712,3.2846 -2.3156,0 -4.2961,-0.7518 -5.9366,-2.262 -1.64,-1.5036 -2.4596,-3.3324 -2.4596,-5.4857 0,-2.0389 0.8273,-3.8193 2.482,-5.3412 1.6547,-1.5219 3.5986,-2.2855 5.8263,-2.2855 1.3791,0 2.6856,0.3128 3.9266,0.9442 1.2334,0.6255 2.1911,1.4434 2.8733,2.4484 z m 0.5223,7.2963 c 0,-1.3296 -0.5801,-2.4726 -1.7344,-3.4168 -1.1537,-0.9501 -2.5399,-1.4257 -4.1503,-1.4257 -1.575,0 -2.9465,0.4691 -4.1149,1.4139 -1.1684,0.9442 -1.7556,2.0506 -1.7556,3.3259 0,1.3779 0.573,2.5505 1.7119,3.5189 1.1395,0.9684 2.5251,1.4499 4.1586,1.4499 1.6104,0 2.9966,-0.4815 4.1503,-1.444 1.1543,-0.956 1.7344,-2.0991 1.7344,-3.4221 z m 12.8368,-7.2963 v 2.9955 0 c 0.8197,-1.2092 1.6258,-2.0814 2.4095,-2.6225 0.7907,-0.5352 1.814,-0.8061 3.0692,-0.8061 0.3558,0 0.8633,0.072 1.5313,0.2107 l -1.0887,3.0674 c -0.7111,-0.1145 -1.1826,-0.1747 -1.4075,-0.1747 -1.2557,0 -2.3079,0.3612 -3.1565,1.0888 -0.8492,0.7217 -1.2699,1.624 -1.2699,2.7128 v 8.0722 h -3.7007 v -14.5441 z m 27.9085,7.8315 H 385.671 c 0.3263,1.5036 1.0663,2.5983 2.2206,3.2899 1.1608,0.6916 2.416,1.041 3.7809,1.041 2.0967,0 3.86,-0.7223 5.2751,-2.1657 l 2.6992,1.6901 c -2.0241,2.1716 -4.7381,3.2545 -8.1419,3.2545 -2.6118,0 -4.7888,-0.74 -6.5527,-2.226 -1.7562,-1.4794 -2.6337,-3.32 -2.6337,-5.5217 0,-2.0631 0.8923,-3.8435 2.6703,-5.3589 1.7775,-1.5101 3.9479,-2.2678 6.5161,-2.2678 2.5257,0 4.6885,0.7636 6.4872,2.2979 1.7999,1.5337 2.6856,3.5248 2.6561,5.9667 z m -14.5859,-2.4543 h 10.7543 c -1.1974,-1.997 -2.9601,-2.9954 -5.2893,-2.9954 -2.5475,0 -4.3686,0.9984 -5.465,2.9954 z" />
      <path
         id="path83"
         style="fill:#ffffff;fill-rule:evenodd"
         d="m 384.8484,556.4238 c 25.8651,-0.7932 62.4371,36.7871 30.4239,58.1678 -38.6267,24.7814 -80.9477,23.2082 -122.1449,0.011 l 0.8524,-1.0866 c 31.6614,18.6443 77.0183,18.3277 110.2177,-0.7741 34.2308,-22.3316 -3.5093,-47.5584 -19.3491,-56.3181 z" />
      <path
         id="path85"
         style="fill:#ffffff;fill-rule:evenodd"
         d="m 389.3426,557.3151 36.7334,-1.1677 c 77.0904,50.2945 -44.0764,140.5699 -149.2045,58.6985 -101.088,-57.5026 -94.3448,-165.8025 -32.3025,-177.2028 -67.9863,35.9094 -28.6957,132.2394 34.4788,168.2015 50.3566,35.5389 108.7911,28.6412 134.2141,8.7466 20.0446,-15.6823 17.2074,-39.8622 -23.9193,-57.2761 z" />
      <path
         id="path87"
         style="fill:#ffffff;fill-rule:evenodd"
         d="m 448.0987,580.7409 c -40.1234,-86.2865 -187.8304,-19.968 -274.1892,80.3289 l 84.5123,19.6218 c 26.7674,-84.9397 115.7001,-164.2543 189.6769,-99.9507 z" />
      <path
         id="path89"
         style="fill:none;stroke:#ffffff;stroke-width:8.4867;stroke-linecap:butt;stroke-linejoin:miter;stroke-dasharray:none"
         d="m 279.8647,452.3907 a 43.7474,44.6208 0 0 1 43.7474,44.6208 43.7474,44.6208 0 1 1 -43.7474,-44.6208 z" />
      <path
         id="path91"
         style="fill:none;stroke:#ffffff;stroke-width:8.4867;stroke-linecap:butt;stroke-linejoin:miter;stroke-dasharray:none"
         d="m 280.1004,470.2033 a 26.0588,26.5791 0 0 1 26.0588,26.5791 26.0588,26.5791 0 1 1 -26.0588,-26.5791 z" />
    </g>
  </g>
</svg>
