<?xml version="1.0" encoding="UTF-8" standalone="no"?>
<svg
   xmlns:dc="http://purl.org/dc/elements/1.1/"
   xmlns:cc="http://creativecommons.org/ns#"
   xmlns:rdf="http://www.w3.org/1999/02/22-rdf-syntax-ns#"
   xmlns:svg="http://www.w3.org/2000/svg"
   xmlns="http://www.w3.org/2000/svg"
   xmlns:sodipodi="http://sodipodi.sourceforge.net/DTD/sodipodi-0.dtd"
   xmlns:inkscape="http://www.inkscape.org/namespaces/inkscape"
   width="134.91483mm"
   height="39.664822mm"
   viewBox="0 0 134.91483 39.664822"
   version="1.1"
   id="svg8"
   inkscape:version="1.0 (4035a4fb49, 2020-05-01)"
   sodipodi:docname="logo.svg">
  <defs
     id="defs2" />
  <sodipodi:namedview
     id="base"
     pagecolor="#ffffff"
     bordercolor="#666666"
     borderopacity="1.0"
     inkscape:pageopacity="0.0"
     inkscape:pageshadow="2"
     inkscape:zoom="0.7"
     inkscape:cx="9.8155065"
     inkscape:cy="-37.429989"
     inkscape:document-units="mm"
     inkscape:current-layer="layer2"
     inkscape:document-rotation="0"
     showgrid="false"
     inkscape:window-width="1344"
     inkscape:window-height="728"
     inkscape:window-x="0"
     inkscape:window-y="0"
     inkscape:window-maximized="0" />
  <metadata
     id="metadata5">
    <rdf:RDF>
      <cc:Work
         rdf:about="">
        <dc:format>image/svg+xml</dc:format>
        <dc:type
           rdf:resource="http://purl.org/dc/dcmitype/StillImage" />
        <dc:title />
      </cc:Work>
    </rdf:RDF>
  </metadata>
  <g
     inkscape:label="Layer 2"
     id="layer2"
     inkscape:groupmode="layer">
    <path
       sodipodi:nodetypes="cccscsscscc"
       id="path838"
       d="M 3.6852677,14.741071 17.670387,9.5438988 30.198634,16.39124 c 0,0 0.846969,2.219681 0.606428,4.775426 -0.377976,4.015998 -3.615652,8.988293 -3.615652,8.988293 0,0 -1.192266,1.305563 -2.784485,2.43416 -1.109677,0.786562 -2.462216,1.438572 -3.53644,1.70713 -2.615575,0.653899 -6.538934,0.653902 -6.538934,0.653902 0,0 -7.2424936,-0.554318 -10.7387731,-7.64137 -3.49627985,-7.087055 -1.5119049,-12.56771 0.094494,-12.56771 z"
       style="fill:#ffffff;stroke:none;stroke-width:0.264583px;stroke-linecap:butt;stroke-linejoin:miter;stroke-opacity:1" />
  </g>
  <g
     inkscape:label="Layer 1"
     inkscape:groupmode="layer"
     id="layer1"
     transform="translate(-32.376695,-175.63538)">
    <path
       style="fill:#38bfff;fill-opacity:1;stroke:none;stroke-width:0.217964"
       d="m 37.333734,205.57231 h 0.217965 l -0.217965,-11.11618 c -1.402608,-0.0812 -1.626795,-0.12909 -1.626795,-0.12909 0,0 -0.09833,-1.04364 -0.11692,-1.61463 l -0.914673,0.21797 -0.01551,-1.05708 14.008051,-5.03349 13.907443,5.18681 0.06563,0.84537 -0.895211,-0.15958 c -0.0174,0.53484 -0.07737,1.69752 -0.07737,1.69752 0,0 -1.189019,0.002 -1.927127,0.0268 l -0.17515,11.35361 c 5.199878,-4.66114 4.967779,-16.01558 -0.01962,-20.26984 -4.925953,-5.25267 -13.455883,-6.20278 -19.37922,-2.05621 -1.965145,1.37567 -3.556591,3.18021 -4.629726,5.32482 -1.222626,2.44337 -1.80243,5.11567 -1.682666,7.84672 0.146977,3.35158 1.560115,6.25711 3.478854,8.93655 m 3.051508,-11.11622 c 0.07923,5.3303 0.112031,8.21983 0.0061,13.49091 1.569604,1.2684 2.52612,1.70579 3.699337,1.98456 l -0.217965,-15.47547 h -3.487432 m 6.538934,0 -0.217964,16.12937 h 3.92336 l -0.217965,-16.12937 h -3.487431 m 6.538934,0 -0.217964,15.47547 c 1.173193,-0.27877 2.318654,-0.71616 3.699292,-1.98456 0.01556,-4.86776 0.126419,-8.80669 0.0061,-13.49091 z"
       id="path861"
       sodipodi:nodetypes="cccccccccccccccssscccccccccccccccc" />
    <text
       xml:space="preserve"
       style="font-style:normal;font-weight:normal;font-size:8.21601px;line-height:1.25;font-family:sans-serif;fill:#ffffff;fill-opacity:1;stroke:none;stroke-width:0.440144"
       x="68.017044"
       y="186.42307"
       id="text871"
       transform="scale(0.99030845,1.0097864)"><tspan
         sodipodi:role="line"
         id="tspan869"
         x="68.017044"
         y="186.42307"
         style="font-style:normal;font-variant:normal;font-weight:normal;font-stretch:normal;font-size:8.21601px;font-family:Oswald;-inkscape-font-specification:Oswald;fill:#ffffff;fill-opacity:1;stroke-width:0.440144">PROJETO ATHENAS</tspan></text>
    <text
       transform="scale(0.85626988,1.1678561)"
       id="text875"
       y="176.76294"
       x="77.380463"
       style="font-style:normal;font-weight:normal;font-size:15.3378px;line-height:1.25;font-family:sans-serif;fill:#ffffff;fill-opacity:1;stroke:none;stroke-width:0.821668"
       xml:space="preserve"><tspan
         style="font-style:normal;font-variant:normal;font-weight:normal;font-stretch:normal;font-size:15.3378px;font-family:Oswald;-inkscape-font-specification:Oswald;fill:#ffffff;fill-opacity:1;stroke-width:0.821668"
         y="176.76294"
         x="77.380463"
         id="tspan873"
         sodipodi:role="line">ORDEM DE SERVIÇO</tspan></text>
  </g>
</svg>
