<svg width="114" height="28" viewBox="0 0 110 24" fill="none" xmlns="http://www.w3.org/2000/svg">
<path d="M86.8333 20L86.1667 22H0V20H86.8333Z" fill="#FFC635"/>
<path d="M13.769 18.7189L13.5 5.58719L10.2771 18.7189H6.5516L4 7.82918L3.45552 18.7189H1L1.46263 2.34875H6.5516L9.39858 14.0214L12.3523 2.34875H17.7616L18.2242 18.7189H13.769Z" fill="black"/>
<path d="M24.1811 4.09253C23.7303 4.51957 23.1728 4.7331 22.5085 4.7331C21.8679 4.7331 21.3104 4.50771 20.8359 4.05694C20.3851 3.58244 20.1597 3.02491 20.1597 2.38434C20.1597 1.72005 20.3851 1.16251 20.8359 0.711744C21.2867 0.237248 21.8442 0 22.5085 0C23.1728 0 23.7303 0.237248 24.1811 0.711744C24.6318 1.16251 24.8572 1.73191 24.8572 2.41993C24.8572 3.08422 24.6318 3.64176 24.1811 4.09253ZM24.5014 18.7189H20.5156V5.90747H24.5014V18.7189Z" fill="black"/>
<path d="M30.3782 7.04626C31.8254 6.07355 33.2489 5.58719 34.6486 5.58719C36.0484 5.58719 37.0804 5.97865 37.7447 6.76157C38.4327 7.52076 38.7767 8.50534 38.7767 9.7153V18.7189H34.8266V10.2135C34.8266 9.38316 34.7198 8.77817 34.5063 8.39858C34.2928 8.01898 33.8539 7.82918 33.1896 7.82918C32.549 7.82918 31.8966 8.05457 31.2323 8.50534V18.7189H27.2465V5.90747H29.0614L30.3782 7.04626Z" fill="black"/>
<path d="M45.2323 6.54804C46.4185 5.90747 47.6285 5.58719 48.8622 5.58719C50.1196 5.58719 51.0804 5.97865 51.7447 6.76157C52.4327 7.52076 52.7767 8.50534 52.7767 9.7153V18.7189H48.8266V10.2135C48.8266 9.35943 48.7198 8.75445 48.5063 8.39858C48.2928 8.01898 47.8539 7.82918 47.1896 7.82918C46.549 7.82918 45.8966 8.05457 45.2323 8.50534V18.7189H41.2465V1.9573L45.2323 1.45908V6.54804Z" fill="black"/>
<path d="M62.2216 17.2242C61.2251 18.4342 59.8966 19.0391 58.2358 19.0391C57.1208 19.0391 56.2192 18.7189 55.5312 18.0783C54.8669 17.414 54.5348 16.5243 54.5348 15.4093C54.5348 14.2942 54.9262 13.452 55.7091 12.8826C56.492 12.2894 57.8206 11.8268 59.6949 11.4947L61.9013 11.0676V9.78648C61.9013 8.29181 61.3675 7.54448 60.2999 7.54448C59.1136 7.54448 58.4731 8.50534 58.3782 10.427L55.1041 10.0356C55.2465 8.5172 55.7091 7.40214 56.4921 6.69039C57.275 5.95492 58.5798 5.58719 60.4066 5.58719C64.0365 5.58719 65.8515 7.06999 65.8515 10.0356V18.7189H63.218L62.2216 17.2242ZM58.0579 15.3025C58.0579 16.4176 58.6629 16.9751 59.8728 16.9751C60.5134 16.9751 61.1896 16.5955 61.9013 15.8363V12.669L60.2999 12.9893C58.8052 13.3215 58.0579 14.0925 58.0579 15.3025Z" fill="black"/>
<path d="M77.494 16.7972V18.7189H68.3481V2.34875H72.3694V16.7972H77.494Z" fill="black"/>
<path d="M89.5207 12.3132C89.5207 16.7972 87.4922 19.0391 83.4353 19.0391C79.4021 19.0391 77.3855 16.7972 77.3855 12.3132C77.3855 7.82918 79.4021 5.58719 83.4353 5.58719C87.4922 5.58719 89.5207 7.82918 89.5207 12.3132ZM81.3356 12.3132C81.3356 13.9739 81.478 15.1839 81.7627 15.9431C82.0474 16.7023 82.6049 17.0819 83.4353 17.0819C84.2894 17.0819 84.8469 16.7141 85.1079 15.9786C85.3926 15.2195 85.5349 13.9976 85.5349 12.3132C85.5349 10.6287 85.3926 9.41874 85.1079 8.68327C84.8469 7.92408 84.2894 7.54448 83.4353 7.54448C82.6049 7.54448 82.0474 7.92408 81.7627 8.68327C81.478 9.44247 81.3356 10.6524 81.3356 12.3132Z" fill="black"/>
<path d="M95.0561 4.09253C94.6053 4.51957 94.0478 4.7331 93.3835 4.7331C92.7429 4.7331 92.1854 4.50771 91.7109 4.05694C91.2601 3.58244 91.0347 3.02491 91.0347 2.38434C91.0347 1.72005 91.2601 1.16251 91.7109 0.711744C92.1617 0.237248 92.7192 0 93.3835 0C94.0478 0 94.6053 0.237248 95.0561 0.711744C95.5068 1.16251 95.7322 1.73191 95.7322 2.41993C95.7322 3.08422 95.5068 3.64176 95.0561 4.09253ZM87.049 22.7046L88.2233 19.8577C88.769 20.7117 89.4333 21.1388 90.2162 21.1388C90.5958 21.1388 90.8924 20.9727 91.1059 20.6406C91.3194 20.3084 91.4262 19.8814 91.4262 19.3594V5.90747H95.4119V18.8612C95.4119 21.9454 93.7749 23.4875 90.5009 23.4875C89.3858 23.4875 88.2352 23.2266 87.049 22.7046Z" fill="black"/>
<path d="M105.136 17.2242C104.139 18.4342 102.811 19.0391 101.15 19.0391C100.035 19.0391 99.1333 18.7189 98.4453 18.0783C97.781 17.414 97.4488 16.5243 97.4488 15.4093C97.4488 14.2942 97.8403 13.452 98.6232 12.8826C99.4061 12.2894 100.735 11.8268 102.609 11.4947L104.815 11.0676V9.78648C104.815 8.29181 104.282 7.54448 103.214 7.54448C102.028 7.54448 101.387 8.50534 101.292 10.427L98.0182 10.0356C98.1606 8.5172 98.6232 7.40214 99.4061 6.69039C100.189 5.95492 101.494 5.58719 103.321 5.58719C106.951 5.58719 108.766 7.06999 108.766 10.0356V18.7189H106.132L105.136 17.2242ZM100.972 15.3025C100.972 16.4176 101.577 16.9751 102.787 16.9751C103.427 16.9751 104.104 16.5955 104.815 15.8363V12.669L103.214 12.9893C101.719 13.3215 100.972 14.0925 100.972 15.3025Z" fill="black"/>
<path d="M95.4896 22C95.5295 21.9484 95.5681 21.895 95.6053 21.8399C95.9981 21.2573 96.1518 20.5951 96.0816 20H110V22H95.4896Z" fill="#FFC635"/>
</svg>
